<?xml version="1.0" encoding="utf-8"?>
<!-- Generator: Adobe Illustrator 25.0.0, SVG Export Plug-In . SVG Version: 6.00 Build 0)  -->
<svg version="1.1" id="Layer_1" xmlns="http://www.w3.org/2000/svg" xmlns:xlink="http://www.w3.org/1999/xlink" x="0px" y="0px"
	 viewBox="0 0 150 150" style="enable-background:new 0 0 150 150;" xml:space="preserve">
<style type="text/css">
	.st0{fill:#202020;}
	.st1{fill:#606060;}
	.st2{fill:#C3C3C3;}
	.st3{fill:#FAFAFA;}
	.st4{fill:#96CBDE;}
	.st5{fill:#FFFFFF;}
</style>
<g>
	<path id="Path_7" class="st0" d="M135.1,61.8c-0.5-0.3-1-0.6-1.5-0.8c0,0,0.2,0.6,0.4,1.8c0.1,0.5,0.2,1.1,0.4,1.8
		c3,15.9,10.2,78.5-59.4,78.5c-0.8,0-1.5,0-2.3,0h-0.1c-0.4,0-0.8,0-1.2,0c-75.5-2.4-55-82-55-82c-1,0.5-2.1,1.1-3,1.8
		c-0.9,0.6-1.7,1.2-2.4,1.8C9.6,65.6,8.2,66.8,7,68c0-1.4,0.1-2.8,0.3-4.2c0.1-0.7,0.2-1.3,0.3-2c1.3-6.7,4.3-12.9,8.7-18.2
		l11.5-21.1c3.1-1.1,6.3-2,9.5-2.8l15.8-5.5l0.9-0.3c6.4-0.2,12.7,0.9,18.6,3.2c0.4,0.2,0.8,0.4,1.1,0.5v0c0.5,0.3,0.9,0.6,1.3,0.9
		c0,0,3.4-3.4,14.5-4.4c0.7-0.1,1.4-0.1,2.2-0.2c1.3-0.1,2.8-0.1,4.3-0.1l16.7,5.8c3.3,0.7,6.4,1.9,9.4,3.4l11.7,20.4
		c5.8,6.8,9.1,15.4,9.2,24.3c-1.6-1.5-3.2-2.9-5-4.2C137.1,63,136.1,62.4,135.1,61.8z"/>
	<path id="Path_9" class="st1" d="M53,35.7c2.4-1,3.6-3.7,2.6-6.1c-0.2-0.5-0.4-0.9-0.8-1.3c-1.8-2-2.4-4.7-1.6-7.3
		c2.4-7,0-14.1-9.6-14.1c-9,0-9.5,18.8,2.5,28.8c1.3,1.1,3.1,1.4,4.7,0.7L53,35.7z"/>
	<path id="Path_10" class="st1" d="M33,46.3c2.1-1.5,2.7-4.4,1.2-6.5c-0.3-0.5-0.7-0.9-1.2-1.2c-3.3-1.9-5.2-5.5-4.9-9.3
		c1-9.2-3.7-17.2-15.2-14.7C2,16.9,6.6,40.4,24.1,49.3c1.5,0.8,3.4,0.7,4.8-0.3L33,46.3z"/>
	<path id="Path_11" class="st1" d="M97,35.7c-2.4-1-3.6-3.7-2.6-6.1c0.2-0.5,0.4-0.9,0.8-1.3c1.8-2,2.4-4.7,1.6-7.3
		c-2.4-7,0-14.1,9.6-14.1c9,0,9.6,18.8-2.5,28.8c-1.3,1.1-3.1,1.4-4.7,0.7L97,35.7z"/>
	<path id="Path_12" class="st2" d="M125.9,49.3c-1.3,0.7-2.9,0.7-4.2,0.1c-0.2-0.1-0.4-0.2-0.6-0.4l-4.1-2.8
		c-2.1-1.4-2.7-4.4-1.3-6.5c0.3-0.5,0.8-0.9,1.2-1.3c3.3-1.9,5.2-5.5,4.9-9.3c-0.6-5.7,0.9-10.9,4.9-13.4c3.1-1.8,6.9-2.3,10.3-1.3
		C148,16.9,143.5,40.4,125.9,49.3z"/>
	<path id="Path_13" class="st1" d="M121.7,49.4c-0.2-0.1-0.4-0.2-0.6-0.4l-4.1-2.8c-2.1-1.4-2.7-4.4-1.3-6.5
		c0.3-0.5,0.8-0.9,1.2-1.3c3.3-1.9,5.2-5.5,4.9-9.3c-0.6-5.7,0.9-10.9,4.9-13.4c1.1,0.1,2.2,0.2,3.3,0.4
		C140.4,18.5,136.9,39.6,121.7,49.4z"/>
	<path id="Path_14" class="st1" d="M51.5,78.6l-1.9-6c-2.5-4.3-7.1-7-12.1-7c-0.8,0-1.6,0.1-2.3,0.2c-7.7,1.3-12.8,8.5-11.5,16.2
		c1,5.9,5.6,10.5,11.5,11.5c0.8,0.1,1.6,0.2,2.3,0.2c7.8,0,14.1-6.3,14.1-14.1c0,0,0,0,0,0C51.6,79.3,51.5,79,51.5,78.6z"/>
	<path id="Path_15" class="st1" d="M112.5,65.6c-0.8,0-1.6,0.1-2.3,0.2c-4.1,0.7-7.7,3.2-9.8,6.8l-1.9,6c0,0.4,0,0.7,0,1.1
		c0,6.9,5,12.7,11.7,13.9c0.8,0.1,1.6,0.2,2.3,0.2c7.8,0.1,14.1-6.2,14.2-14s-6.2-14.1-14-14.2C112.7,65.6,112.6,65.6,112.5,65.6
		L112.5,65.6z"/>
	<path id="Path_16" class="st1" d="M75,42.2c-0.8,0-1.6,0-2.3,0.1c-14.2,1.3-24.6,13.8-23.3,28c0.6,6.9,4,13.3,9.4,17.7
		c0.4,0.4,0.8,0.7,1.2,1c4.1-1.3,8.4-2,12.7-2.1c0.8,0,1.5,0,2.3,0c3.9,0,7.8,0.4,11.6,1.2c1.2,0.3,2.4,0.6,3.4,1
		c11.6-8.3,14.2-24.4,5.9-36C91.1,46.2,83.3,42.2,75,42.2z"/>
	<path id="Path_17" class="st3" d="M91.4,68c0,9.1-7.3,16.4-16.4,16.4S58.6,77.1,58.6,68c0-9.1,7.3-16.4,16.4-16.4
		C84.1,51.6,91.4,58.9,91.4,68C91.4,68,91.4,68,91.4,68z"/>
	<path id="Path_18" class="st4" d="M84.4,68c0,5.2-4.2,9.4-9.4,9.4c-5.2,0-9.4-4.2-9.4-9.4c0-5.2,4.2-9.4,9.4-9.4
		C80.2,58.6,84.4,62.8,84.4,68C84.4,68,84.4,68,84.4,68z"/>
	<path id="Path_19" class="st3" d="M46.9,79.7c0,5.2-4.2,9.4-9.4,9.4s-9.4-4.2-9.4-9.4c0-5.2,4.2-9.4,9.4-9.4S46.9,74.5,46.9,79.7
		L46.9,79.7z"/>
	<path id="Path_20" class="st3" d="M121.9,79.7c0,5.2-4.2,9.4-9.4,9.4s-9.4-4.2-9.4-9.4c0-5.2,4.2-9.4,9.4-9.4
		S121.9,74.5,121.9,79.7C121.9,79.7,121.9,79.7,121.9,79.7z"/>
	<path id="Path_23" class="st4" d="M42.2,79.7c0,2.6-2.1,4.7-4.7,4.7s-4.7-2.1-4.7-4.7c0-2.6,2.1-4.7,4.7-4.7
		C40.1,75,42.2,77.1,42.2,79.7L42.2,79.7z"/>
	<path id="Path_25" class="st4" d="M117.2,79.7c0,2.6-2.1,4.7-4.7,4.7s-4.7-2.1-4.7-4.7s2.1-4.7,4.7-4.7S117.2,77.1,117.2,79.7
		L117.2,79.7z"/>
	<path id="Path_26" class="st2" d="M13.4,62.8c0.4-0.3,0.8-0.5,1.2-0.8c0-0.1,0-0.1,0-0.2c1.3-6.7,4.3-12.9,8.7-18.2v0
		C12.5,33,10.9,16.5,19.9,14.5c0.1,0,0.2,0,0.3-0.1c-2.4-0.6-4.9-0.5-7.3,0.1c-9.1,2-7.4,18.5,3.4,29.1v0
		c-4.4,5.2-7.4,11.5-8.7,18.1c-0.1,0.6-0.2,1.3-0.3,2C7.1,65.2,7,66.6,7,68c1.2-1.2,2.6-2.4,3.9-3.4C11.7,64,12.5,63.3,13.4,62.8z"
		/>
	<path id="Path_27" class="st5" d="M142.5,63.8c-0.4-0.4-0.9-0.7-1.4-1c0.1,0.5,0.2,1.1,0.4,1.8c0.1,0.7,0.3,1.5,0.4,2.3
		c0.7,0.7,1.2,1.1,1.2,1.1c0-2-0.2-4-0.6-6c-0.1-0.1-0.2-0.1-0.3-0.2C142.3,62.4,142.4,63.1,142.5,63.8z"/>
	<path id="Path_28" class="st2" d="M71.4,143c0.4,0,0.8,0,1.2,0h0.1c0.8,0,1.5,0,2.3,0c1.1,0,2-0.1,3-0.1c-75-2.7-54.6-82-54.6-82
		c-1,0.5-2.1,1.1-3,1.8c-0.9,0.6-1.7,1.2-2.4,1.8c-1.1,0.9-2.1,1.7-2.7,2.3C12.2,85.4,8.5,140.9,71.4,143z"/>
	<g id="Group_4">
		<path id="Path_29" class="st3" d="M6.1,70.2C7,70.5,8,70.3,8.7,69.6c1.4-1.3,2.8-2.6,4.3-3.7c-2,11.7-4.5,39.2,10.6,58.7
			c10.7,13.8,28,20.7,51.4,20.7s40.7-7,51.4-20.7c15.2-19.6,12.6-47,10.6-58.7c1.5,1.2,2.9,2.4,4.3,3.7c0.9,0.9,2.4,0.9,3.3,0
			c0.4-0.4,0.7-1,0.7-1.7c-0.1-8.8-3.1-17.3-8.5-24.2c5.9-6.6,9-14.9,8.5-21.5c-0.4-5.4-3.2-9.1-7.7-10.1c-7-1.5-11.2,0.6-13.5,2.7
			c-1.5,1.4-2.7,3.1-3.4,5.1c-1.8-0.8-3.6-1.4-5.5-1.9c0.1-2.1-0.1-4.3-0.6-6.3c-0.8-4-4.3-6.9-8.3-7c-4.1-0.4-8.2,1.4-10.7,4.7
			c-0.5,0.7-0.9,1.5-1.2,2.4C83.2,12,77.5,14.4,75,15.9c-2.5-1.5-8.3-3.8-19.2-4.1c-0.3-0.8-0.7-1.6-1.2-2.4
			c-2.6-3.3-6.6-5-10.7-4.7c-4.1,0.1-7.5,3-8.3,7c-0.6,2.1-0.8,4.2-0.6,6.3c-1.6,0.4-3.7,1-5.6,1.6c-0.7-1.8-1.8-3.4-3.3-4.7
			c-2.3-2.1-6.5-4.2-13.5-2.7c-4.5,1-7.2,4.6-7.7,10c-0.5,6.6,2.5,14.9,8.5,21.5C7.8,50.7,4.8,59.2,4.7,68
			C4.7,68.9,5.2,69.8,6.1,70.2L6.1,70.2z M16.5,47.1c2.8,2.4,5.9,4.2,9.3,5.6c1.2,0.5,2.6,0,3.1-1.2c0.5-1.2,0-2.6-1.2-3.1
			c0,0-0.1,0-0.1-0.1c-12.8-5-18.8-18.1-18.2-25.7c-0.2-2.6,1.5-5,4-5.8c3.2-1.1,6.7-0.5,9.4,1.6c2.6,2.9,3.7,6.8,3,10.6
			c-1.2,11.1,12.9,14.8,13.5,15c1.3,0.3,2.5-0.4,2.9-1.7s-0.4-2.5-1.7-2.9l0,0c-0.1,0-10.7-2.8-10-9.9c0.2-1.8,0.2-3.6-0.1-5.3
			c1.7-0.6,3.6-1.1,5.1-1.5c1.7,6.9,5.9,12.9,11.8,16.8c0.4,0.3,0.8,0.4,1.3,0.4c1.3,0,2.3-1,2.3-2.3c0-0.8-0.4-1.5-1.1-2
			c-9.1-5.9-11.6-16.9-9.9-22.5c0.5-1.7,1.6-3.7,3.8-3.7c2.6-0.2,5.2,0.8,6.9,2.7c1.4,2.5,1.6,5.6,0.4,8.2c-3,8.9,7.9,14.4,8.4,14.6
			c1.2,0.5,2.6,0,3.1-1.1c0.5-1.1,0.1-2.5-1-3.1c-0.1,0-7.7-3.9-6-8.9c0.6-1.7,0.9-3.6,1-5.4c12.6,0.5,16.9,4,16.9,4
			c0.4,0.4,1,0.6,1.6,0.6c0.6,0,1.2-0.2,1.6-0.6c0,0,4.1-3.6,16.9-4c0,1.8,0.4,3.7,1,5.4c1.7,5-5.9,8.8-6,8.9
			c-1.2,0.6-1.7,2-1.1,3.1c0.6,1.2,2,1.7,3.1,1.1c0.5-0.2,11.4-5.7,8.4-14.6c-1.2-2.7-1-5.7,0.4-8.2c1.8-1.9,4.3-3,6.9-2.7
			c2.3,0,3.3,2,3.8,3.7c1.7,5.6-0.8,16.6-9.9,22.5c-1.1,0.7-1.4,2.2-0.7,3.2c0.4,0.7,1.2,1,1.9,1.1c0.5,0,0.9-0.1,1.3-0.4
			c5.9-3.9,10.1-9.9,11.8-16.7c1.7,0.5,3.4,1.2,5.1,1.9c-0.2,1.6-0.2,3.2,0,4.8c0.8,7.1-9.8,9.9-10,9.9c-1.3,0.3-2,1.6-1.7,2.9
			c0.3,1.3,1.6,2,2.9,1.7c0.6-0.2,14.7-3.9,13.5-15c-0.7-3.8,0.4-7.7,3-10.6c2.7-2,6.2-2.6,9.4-1.6c2.5,0.8,4.1,3.2,4,5.8
			c0.6,7.5-5.4,20.7-18.2,25.7c-1.2,0.5-1.8,1.9-1.3,3.1c0.5,1.2,1.8,1.7,3,1.3c3.4-1.3,6.5-3.2,9.3-5.6c3.4,4.5,5.7,9.8,6.7,15.3
			c-1.7-1.4-3.6-2.6-5.5-3.6c-1.2-0.6-2.6-0.1-3.1,1c-0.3,0.5-0.3,1.1-0.2,1.6c0.1,0.4,9.2,37.2-8.7,60.2
			c-9.7,12.5-25.8,18.9-47.7,18.9s-38-6.4-47.7-18.9c-17.9-23.1-8.8-59.9-8.7-60.2c0.3-1.3-0.4-2.5-1.7-2.9
			c-0.5-0.1-1.1-0.1-1.6,0.2c-1.9,1-3.8,2.2-5.5,3.6C10.8,56.9,13.1,51.6,16.5,47.1z"/>
		<path id="Path_30" class="st3" d="M37.5,96.1c6.9,0,13.1-4.3,15.4-10.8c1.6,2.1,3.5,4,5.7,5.5c0.1,0,0.1,0,0.2,0.1
			c0.1,0.1,0.3,0.1,0.4,0.2c0.1,0.1,0.3,0.1,0.4,0.1c0.1,0,0.3,0,0.4,0c0.2,0,0.3,0,0.5-0.1c0.1,0,0.1,0,0.2,0
			c9.4-2.7,19.3-2.7,28.6,0c0.2,0.1,0.5,0.1,0.7,0.1c0.1,0,0.2,0,0.2,0c0.4,0,0.8-0.2,1.1-0.4c2.2-1.6,4.1-3.4,5.7-5.5
			c3.1,8.5,12.5,13,21,9.9c8.5-3.1,13-12.5,9.9-21c-3.1-8.5-12.5-13-21-9.9c-1.4,0.5-2.7,1.2-4,2.1C102.2,50.9,88.9,39,73.4,39.9
			c-14.3,0.8-25.7,12.2-26.5,26.5c-7.4-5.2-17.6-3.5-22.9,3.9c-5.2,7.4-3.5,17.6,3.9,22.9C30.8,95.1,34.1,96.1,37.5,96.1L37.5,96.1z
			 M112.5,68c6.5,0,11.7,5.2,11.7,11.7s-5.2,11.7-11.7,11.7c-6.5,0-11.7-5.2-11.7-11.7c0-0.2,0-0.5,0-0.7c0.7-1.7,1.3-3.5,1.7-5.4
			C104.6,70.1,108.4,68,112.5,68L112.5,68z M75,44.5c12.9,0,23.4,10.4,23.4,23.4c0,7.2-3.3,14-8.9,18.4c-9.5-2.5-19.5-2.5-29,0
			c-10.2-8-11.9-22.7-3.9-32.9C61,47.8,67.8,44.5,75,44.5z M37.5,68c4.1,0,7.9,2.1,10,5.7c0.4,1.8,1,3.7,1.7,5.4c0,0.2,0,0.4,0,0.7
			c0,6.5-5.2,11.7-11.7,11.7s-11.7-5.2-11.7-11.7C25.8,73.2,31,68,37.5,68C37.5,68,37.5,68,37.5,68L37.5,68z"/>
		<path id="Path_31" class="st0" d="M75,79.7c6.5,0,11.7-5.2,11.7-11.7S81.5,56.3,75,56.3S63.3,61.5,63.3,68c0,0,0,0,0,0
			C63.3,74.5,68.5,79.7,75,79.7z M75,61c3.9,0,7,3.1,7,7c0,3.9-3.1,7-7,7c-3.9,0-7-3.1-7-7c0,0,0,0,0,0C68,64.1,71.1,61,75,61L75,61
			z"/>
		<path id="Path_32" class="st3" d="M111.5,105.9c-1.8-1.8-4.8-1.8-6.6,0c-0.1,0.1-0.2,0.2-0.3,0.3c-2.2,2.6-9.6,8.8-29.6,8.8
			s-27.4-6.1-29.6-8.8c-1.7-2-4.6-2.2-6.6-0.5c-0.1,0.1-0.2,0.2-0.3,0.3l-2.7,2.7c-0.9,0.9-0.9,2.4,0,3.3c0.9,0.9,2.4,0.9,3.3,0
			l2.7-2.7c3.3,3.9,12,10.4,33.2,10.4s29.9-6.5,33.2-10.4l2.7,2.7c0.9,0.9,2.4,0.9,3.3,0c0.9-0.9,0.9-2.4,0-3.3L111.5,105.9z"/>
		<path id="Path_33" class="st3" d="M86.7,124.3c-0.9,0-1.6,0.5-2.1,1.2c-0.6,0.3-2.8,1.1-9.7,1.1s-9.1-0.8-9.7-1.1
			c-0.6-1.1-2-1.5-3.2-0.9c-0.7,0.4-1.2,1.2-1.2,2.1c0,4.2,8,4.7,14.1,4.7s14.1-0.5,14.1-4.7C89.1,125.3,88,124.3,86.7,124.3
			C86.7,124.3,86.7,124.3,86.7,124.3z"/>
		<path id="Path_34" class="st0" d="M37.5,86.7c3.9,0,7-3.1,7-7c0-3.9-3.1-7-7-7c-3.9,0-7,3.1-7,7c0,0,0,0,0,0
			C30.4,83.6,33.6,86.7,37.5,86.7C37.5,86.7,37.5,86.7,37.5,86.7z M37.5,77.4c1.3,0,2.3,1,2.3,2.3s-1,2.3-2.3,2.3
			c-1.3,0-2.3-1-2.3-2.3C35.1,78.4,36.2,77.4,37.5,77.4C37.5,77.4,37.5,77.4,37.5,77.4L37.5,77.4z"/>
		<path id="Path_35" class="st0" d="M112.5,86.7c3.9,0,7-3.1,7-7c0-3.9-3.1-7-7-7c-3.9,0-7,3.1-7,7c0,0,0,0,0,0
			C105.5,83.6,108.6,86.7,112.5,86.7z M112.5,77.4c1.3,0,2.3,1,2.3,2.3s-1,2.3-2.3,2.3s-2.3-1-2.3-2.3
			C110.2,78.4,111.2,77.4,112.5,77.4C112.5,77.4,112.5,77.4,112.5,77.4L112.5,77.4z"/>
	</g>
</g>
</svg>
